HIERARCHY
ROOT Hips
{
  OFFSET -13.008 4.270 -301.571
  CHANNELS 6 Xposition Yposition Zposition Zrotation Xrotation Yrotation
  JOINT LeftUpLeg
  {
    OFFSET 7.876 -7.670 2.064
    CHANNELS 6 Xposition Yposition Zposition Zrotation Xrotation Yrotation
    JOINT LeftLeg
    {
      OFFSET 0.000 -50.614 0.000
      CHANNELS 6 Xposition Yposition Zposition Zrotation Xrotation Yrotation
      JOINT LeftFoot
      {
        OFFSET -0.000 -40.575 -0.000
        CHANNELS 6 Xposition Yposition Zposition Zrotation Xrotation Yrotation
        End Site
        {
          OFFSET -0.000 -10.620 6.131
        }
      }
    }
  }
  JOINT RightUpLeg
  {
    OFFSET -7.693 -7.570 1.250
    CHANNELS 6 Xposition Yposition Zposition Zrotation Xrotation Yrotation
    JOINT RightLeg
    {
      OFFSET 0.000 -49.809 0.000
      CHANNELS 6 Xposition Yposition Zposition Zrotation Xrotation Yrotation
      JOINT RightFoot
      {
        OFFSET -0.000 -40.759 -0.000
        CHANNELS 6 Xposition Yposition Zposition Zrotation Xrotation Yrotation
        End Site
        {
          OFFSET 0.000 -8.015 4.627
        }
      }
    }
  }
  JOINT Spine
  {
    OFFSET 0.000 6.306 -6.306
    CHANNELS 6 Xposition Yposition Zposition Zrotation Xrotation Yrotation
    JOINT LeftShoulder
    {
      OFFSET -0.000 32.735 0.000
      CHANNELS 6 Xposition Yposition Zposition Zrotation Xrotation Yrotation
      JOINT LeftArm
      {
        OFFSET 18.990 0.000 -0.000
        CHANNELS 6 Xposition Yposition Zposition Zrotation Xrotation Yrotation
        JOINT LeftForeArm
        {
          OFFSET 26.944 -0.000 0.000
          CHANNELS 6 Xposition Yposition Zposition Zrotation Xrotation Yrotation
          JOINT LeftHand
          {
            OFFSET 27.164 0.000 -0.000
            CHANNELS 6 Xposition Yposition Zposition Zrotation Xrotation Yrotation
            JOINT LeftHandThumb1
            {
            OFFSET 4.970 -0.620 3.390
            CHANNELS 6 Xposition Yposition Zposition Zrotation Xrotation Yrotation
              JOINT LeftHandThumb2
              {
              OFFSET 2.150 -0.000 0.000
              CHANNELS 6 Xposition Yposition Zposition Zrotation Xrotation Yrotation
                JOINT LeftHandThumb3
                {
                OFFSET 2.200 -0.000 0.000
                CHANNELS 6 Xposition Yposition Zposition Zrotation Xrotation Yrotation
                  JOINT LeftHandThumb4
                  {
                  OFFSET 1.700 -0.000 0.000
                  CHANNELS 6 Xposition Yposition Zposition Zrotation Xrotation Yrotation
                  }
                }
              }
            }
            JOINT LeftHandIndex1
            {
            OFFSET 8.730 0.680 2.070
            CHANNELS 6 Xposition Yposition Zposition Zrotation Xrotation Yrotation
              JOINT LeftHandIndex2
              {
              OFFSET 2.670 -0.000 0.000
              CHANNELS 6 Xposition Yposition Zposition Zrotation Xrotation Yrotation
                JOINT LeftHandIndex3
                {
                OFFSET 2.130 -0.000 0.000
                CHANNELS 6 Xposition Yposition Zposition Zrotation Xrotation Yrotation
                  JOINT LeftHandIndex4
                  {
                  OFFSET 1.800 -0.000 0.000
                  CHANNELS 6 Xposition Yposition Zposition Zrotation Xrotation Yrotation
                  }
                }
              }
            }
            JOINT LeftHandMiddle1
            {
            OFFSET 9.220 0.670 0.550
            CHANNELS 6 Xposition Yposition Zposition Zrotation Xrotation Yrotation
              JOINT LeftHandMiddle2
              {
              OFFSET 2.660 -0.000 0.000
              CHANNELS 6 Xposition Yposition Zposition Zrotation Xrotation Yrotation
                JOINT LeftHandMiddle3
                {
                OFFSET 2.280 -0.000 0.000
                CHANNELS 6 Xposition Yposition Zposition Zrotation Xrotation Yrotation
                  JOINT LeftHandMiddle4
                  {
                  OFFSET 1.500 -0.000 0.000
                  CHANNELS 6 Xposition Yposition Zposition Zrotation Xrotation Yrotation
                  }
                }
              }
            }
            JOINT LeftHandRing1
            {
            OFFSET 9.250 0.670 -1.130
            CHANNELS 6 Xposition Yposition Zposition Zrotation Xrotation Yrotation
              JOINT LeftHandRing2
              {
              OFFSET 2.470 -0.000 0.000
              CHANNELS 6 Xposition Yposition Zposition Zrotation Xrotation Yrotation
                JOINT LeftHandRing3
                {
                OFFSET 2.210 -0.000 0.000
                CHANNELS 6 Xposition Yposition Zposition Zrotation Xrotation Yrotation
                  JOINT LeftHandRing4
                  {
                  OFFSET 1.800 -0.000 0.000
                  CHANNELS 6 Xposition Yposition Zposition Zrotation Xrotation Yrotation
                  }
                }
              }
            }
            JOINT LeftHandPinky1
            {
            OFFSET 9.350 0.660 -2.720
            CHANNELS 6 Xposition Yposition Zposition Zrotation Xrotation Yrotation
              JOINT LeftHandPinky2
              {
              OFFSET 1.630 -0.000 0.000
              CHANNELS 6 Xposition Yposition Zposition Zrotation Xrotation Yrotation
                JOINT LeftHandPinky3
                {
                OFFSET 1.710 -0.000 0.000
                CHANNELS 6 Xposition Yposition Zposition Zrotation Xrotation Yrotation
                  JOINT LeftHandPinky4
                  {
                  OFFSET 1.800 -0.000 0.000
                  CHANNELS 6 Xposition Yposition Zposition Zrotation Xrotation Yrotation
                  }
                }
              }
            }
          }
        }
      }
    }
    JOINT RightShoulder
    {
      OFFSET -0.000 32.735 0.000
      CHANNELS 6 Xposition Yposition Zposition Zrotation Xrotation Yrotation
      JOINT RightArm
      {
        OFFSET -18.243 0.000 -0.000
        CHANNELS 6 Xposition Yposition Zposition Zrotation Xrotation Yrotation
        JOINT RightForeArm
        {
          OFFSET -28.087 0.000 0.000
          CHANNELS 6 Xposition Yposition Zposition Zrotation Xrotation Yrotation
          JOINT RightHand
          {
            OFFSET -27.865 -0.000 -0.000
            CHANNELS 6 Xposition Yposition Zposition Zrotation Xrotation Yrotation
            JOINT RightHandThumb1
            {
            OFFSET -4.970 -0.620 3.390
            CHANNELS 6 Xposition Yposition Zposition Zrotation Xrotation Yrotation
              JOINT RightHandThumb2
              {
              OFFSET -2.150 0.000 0.000
              CHANNELS 6 Xposition Yposition Zposition Zrotation Xrotation Yrotation
                JOINT RightHandThumb3
                {
                OFFSET -2.200 0.000 0.000
                CHANNELS 6 Xposition Yposition Zposition Zrotation Xrotation Yrotation
                  JOINT RightHandThumb4
                  {
                  OFFSET -1.700 0.000 0.000
                  CHANNELS 6 Xposition Yposition Zposition Zrotation Xrotation Yrotation
                  }
                }
              }
            }
            JOINT RightHandIndex1
            {
            OFFSET -8.730 0.680 2.070
            CHANNELS 6 Xposition Yposition Zposition Zrotation Xrotation Yrotation
              JOINT RightHandIndex2
              {
              OFFSET -2.670 0.000 0.000
              CHANNELS 6 Xposition Yposition Zposition Zrotation Xrotation Yrotation
                JOINT RightHandIndex3
                {
                OFFSET -2.130 0.000 0.000
                CHANNELS 6 Xposition Yposition Zposition Zrotation Xrotation Yrotation
                  JOINT RightHandIndex4
                  {
                  OFFSET -1.800 0.000 0.000
                  CHANNELS 6 Xposition Yposition Zposition Zrotation Xrotation Yrotation
                  }
                }
              }
            }
            JOINT RightHandMiddle1
            {
            OFFSET -9.220 0.670 0.550
            CHANNELS 6 Xposition Yposition Zposition Zrotation Xrotation Yrotation
              JOINT RightHandMiddle2
              {
              OFFSET -2.660 0.000 0.000
              CHANNELS 6 Xposition Yposition Zposition Zrotation Xrotation Yrotation
                JOINT RightHandMiddle3
                {
                OFFSET -2.280 0.000 0.000
                CHANNELS 6 Xposition Yposition Zposition Zrotation Xrotation Yrotation
                  JOINT RightHandMiddle4
                  {
                  OFFSET -1.500 0.000 0.000
                  CHANNELS 6 Xposition Yposition Zposition Zrotation Xrotation Yrotation
                  }
                }
              }
            }
            JOINT RightHandRing1
            {
            OFFSET -9.250 0.670 -1.130
            CHANNELS 6 Xposition Yposition Zposition Zrotation Xrotation Yrotation
              JOINT RightHandRing2
              {
              OFFSET -2.470 0.000 0.000
              CHANNELS 6 Xposition Yposition Zposition Zrotation Xrotation Yrotation
                JOINT RightHandRing3
                {
                OFFSET -2.210 0.000 0.000
                CHANNELS 6 Xposition Yposition Zposition Zrotation Xrotation Yrotation
                  JOINT RightHandRing4
                  {
                  OFFSET -1.800 0.000 0.000
                  CHANNELS 6 Xposition Yposition Zposition Zrotation Xrotation Yrotation
                  }
                }
              }
            }
            JOINT RightHandPinky1
            {
            OFFSET -9.350 0.660 -2.720
            CHANNELS 6 Xposition Yposition Zposition Zrotation Xrotation Yrotation
              JOINT RightHandPinky2
              {
              OFFSET -1.630 0.000 0.000
              CHANNELS 6 Xposition Yposition Zposition Zrotation Xrotation Yrotation
                JOINT RightHandPinky3
                {
                OFFSET -1.710 0.000 0.000
                CHANNELS 6 Xposition Yposition Zposition Zrotation Xrotation Yrotation
                  JOINT RightHandPinky4
                  {
                  OFFSET -1.800 0.000 0.000
                  CHANNELS 6 Xposition Yposition Zposition Zrotation Xrotation Yrotation
                  }
                }
              }
            }
          }
        }
      }
    }
    JOINT Neck
    {
      OFFSET -0.000 32.735 0.000
      CHANNELS 6 Xposition Yposition Zposition Zrotation Xrotation Yrotation
      JOINT Head
      {
        OFFSET -0.000 24.134 -0.000
        CHANNELS 6 Xposition Yposition Zposition Zrotation Xrotation Yrotation
        End Site
        {
          OFFSET -0.000 0.097 -0.000
        }
      }
    }
  }
}
MOTION
Frames:	6
Frame Time:	0.0333333
-11.7991 3.6455 -300.43 0.137199 -1.21191 2.21858 8.02503 -7.89667 2.25463 4.25045 1.10184 -3.86688 -7.45058e-07 -50.3482 4.76837e-05 -8.63065 -1.01334 -0.153798 2.6077e-06 -39.6677 -4.76837e-05 31.4329 -3.73042 22.8546 -7.8348 -7.80937 1.21007 -5.06077 -1.0618 -3.86804 -2.98023e-06 -49.2754 2.38419e-05 6.71415 6.4681 -0.759785 8.9407e-06 -39.9218 2.38419e-05 0.650733 -6.27378 0.432955 2.32831e-08 6.31559 -6.31566 0.868678 -2.9972 -1.46857 1.49012e-06 32.7349 4.76837e-05 -20.6861 1.15259e-05 -2.00849 19.5115 5.96046e-06 0 59.9178 -61.8732 58.7633 25.728 4.76837e-05 4.47035e-06 6.76138e-06 7.68396e-06 -31.742 23.9368 -2.38419e-05 1.19209e-05 7.72945 -0.0799046 -5.4352 0.0062 0.0497 0.0339 0 0 0 0 0.0215 0 0 0 0 0 0.022 0 0 0 0 0 0.017 0 0 0 0 -0.0068 0.0873 0.0207 0 0 0 0 0.0267 0 0 0 0 0 0.0213 0 0 0 0 0 0.018 0 0 0 0 -0.0067 0.0922 0.0055 0 0 0 0 0.0266 0 0 0 0 0 0.0228 0 0 0 0 0 0.015 0 0 0 0 -0.0067 0.0925 -0.0113 0 0 0 0 0.0247 0 0 0 0 0 0.0221 0 0 0 0 0 0.018 0 0 0 0 -0.0066 0.0935 -0.0272 0 0 0 0 0.0163 0 0 0 0 0 0.0171 0 0 0 0 0 0.018 0 0 0 0 1.49012e-06 32.7349 4.76837e-05 16.8251 -1.28066e-06 2.13979 -18.3147 0 -2.38419e-05 -57.3546 -67.0956 -52.438 -27.2115 0 7.45058e-07 -1.22447e-05 4.26887e-06 29.6021 -24.0808 2.38419e-05 5.96046e-06 36.9924 0.714507 -51.6126 -0.0062 0.0497 0.0339 0 0 0 0 0.0215 0 0 0 0 0 0.022 0 0 0 0 0 0.017 0 0 0 0 0.0068 0.0873 0.0207 0 0 0 0 0.0267 0 0 0 0 0 0.0213 0 0 0 0 0 0.018 0 0 0 0 0.0067 0.0922 0.0055 0 0 0 0 0.0266 0 0 0 0 0 0.0228 0 0 0 0 0 0.015 0 0 0 0 0.0067 0.0925 -0.0113 0 0 0 0 0.0247 0 0 0 0 0 0.0221 0 0 0 0 0 0.018 0 0 0 0 0.0066 0.0935 -0.0272 0 0 0 0 0.0163 0 0 0 0 0 0.0171 0 0 0 0 0 0.018 0 0 0 0 1.49012e-06 32.7349 4.76837e-05 -7.96949 10.1721 1.41631 -1.49012e-06 24.1608 4.76837e-05 1.07656e-05 -7.68396e-06 2.13443e-07 
-11.7984 3.76866 -300.478 0.132828 -1.35313 2.12922 8.03592 -7.90034 2.25041 4.29459 1.21421 -3.872 2.98023e-06 -50.3389 4.76837e-05 -8.71634 -0.89971 -0.137931 7.45058e-07 -39.7715 -0.000119209 31.4356 -3.84154 22.9241 -7.84152 -7.83941 1.20537 -5.00777 -0.92496 -3.85551 2.98023e-06 -49.366 4.76837e-05 6.62745 6.47279 -0.750428 -5.96046e-06 -39.908 -4.76837e-05 0.619164 -5.35776 0.405887 2.14204e-06 6.304 -6.30405 0.885441 -2.95298 -1.47113 -2.98023e-06 32.7349 0 -20.5542 1.06722e-05 -1.93936 19.488 -5.96046e-06 4.76837e-05 63.5847 -62.5801 59.4767 25.8526 -2.38419e-05 2.98023e-06 1.21842e-05 -9.39151e-06 -35.0395 24.6656 0 2.38419e-05 5.87572 0.337967 3.35809 0.0062 0.0497 0.0339 0 0 0 0 0.0215 0 0 0 0 0 0.022 0 0 0 0 0 0.017 0 0 0 0 -0.0068 0.0873 0.0207 0 0 0 0 0.0267 0 0 0 0 0 0.0213 0 0 0 0 0 0.018 0 0 0 0 -0.0067 0.0922 0.0055 0 0 0 0 0.0266 0 0 0 0 0 0.0228 0 0 0 0 0 0.015 0 0 0 0 -0.0067 0.0925 -0.0113 0 0 0 0 0.0247 0 0 0 0 0 0.0221 0 0 0 0 0 0.018 0 0 0 0 -0.0066 0.0935 -0.0272 0 0 0 0 0.0163 0 0 0 0 0 0.0171 0 0 0 0 0 0.018 0 0 0 0 -2.98023e-06 32.7349 0 16.5702 -2.13443e-06 2.05813 -18.3637 -5.96046e-06 0 -64.4868 -69.1038 -56.9568 -27.0957 0 -1.11759e-06 1.68701e-06 2.13443e-06 31.9738 -25.2486 2.38419e-05 -2.38419e-05 9.26651 3.87932 -30.3861 -0.0062 0.0497 0.0339 0 0 0 0 0.0215 0 0 0 0 0 0.022 0 0 0 0 0 0.017 0 0 0 0 0.0068 0.0873 0.0207 0 0 0 0 0.0267 0 0 0 0 0 0.0213 0 0 0 0 0 0.018 0 0 0 0 0.0067 0.0922 0.0055 0 0 0 0 0.0266 0 0 0 0 0 0.0228 0 0 0 0 0 0.015 0 0 0 0 0.0067 0.0925 -0.0113 0 0 0 0 0.0247 0 0 0 0 0 0.0221 0 0 0 0 0 0.018 0 0 0 0 0.0066 0.0935 -0.0272 0 0 0 0 0.0163 0 0 0 0 0 0.0171 0 0 0 0 0 0.018 0 0 0 0 -2.98023e-06 32.7349 0 -7.89355 10.4391 1.43905 -7.45058e-07 24.0694 0 8.43101e-06 -1.15259e-05 -3.20165e-07 
-11.8066 3.90324 -300.526 0.123575 -1.50009 2.04624 8.04004 -7.9096 2.25065 4.35094 1.33798 -3.91545 -1.49012e-06 -50.3614 -4.76837e-05 -8.82044 -0.846794 -0.131394 1.49012e-06 -39.8334 2.38419e-05 31.3945 -3.99359 22.9753 -7.8483 -7.86212 1.1955 -4.93533 -0.800908 -3.87853 0 -49.4598 2.38419e-05 6.54665 6.4626 -0.740039 2.98023e-06 -39.9431 -4.76837e-05 0.611173 -4.39984 0.393109 1.11759e-06 6.29404 -6.29401 0.871904 -2.90826 -1.43169 -2.98023e-06 32.7349 4.76837e-05 -20.2894 1.23797e-05 -1.87445 19.4663 1.78814e-05 -2.38419e-05 65.6436 -63.0009 58.8161 25.8009 2.38419e-05 7.45058e-06 1.66218e-06 8.53774e-07 -35.6258 25.0236 -2.38419e-05 1.19209e-05 5.55468 0.254558 3.45228 0.0062 0.0497 0.0339 0 0 0 0 0.0215 0 0 0 0 0 0.022 0 0 0 0 0 0.017 0 0 0 0 -0.0068 0.0873 0.0207 0 0 0 0 0.0267 0 0 0 0 0 0.0213 0 0 0 0 0 0.018 0 0 0 0 -0.0067 0.0922 0.0055 0 0 0 0 0.0266 0 0 0 0 0 0.0228 0 0 0 0 0 0.015 0 0 0 0 -0.0067 0.0925 -0.0113 0 0 0 0 0.0247 0 0 0 0 0 0.0221 0 0 0 0 0 0.018 0 0 0 0 -0.0066 0.0935 -0.0272 0 0 0 0 0.0163 0 0 0 0 0 0.0171 0 0 0 0 0 0.018 0 0 0 0 -2.98023e-06 32.7349 4.76837e-05 16.3536 -4.26887e-07 1.98315 -18.3997 1.19209e-05 0 -69.0726 -70.2629 -59.1504 -27.0732 -2.38419e-05 1.11759e-05 -2.75948e-06 -4.26887e-07 32.2625 -26.028 0 -5.96046e-06 4.31257 2.14399 -21.1179 -0.0062 0.0497 0.0339 0 0 0 0 0.0215 0 0 0 0 0 0.022 0 0 0 0 0 0.017 0 0 0 0 0.0068 0.0873 0.0207 0 0 0 0 0.0267 0 0 0 0 0 0.0213 0 0 0 0 0 0.018 0 0 0 0 0.0067 0.0922 0.0055 0 0 0 0 0.0266 0 0 0 0 0 0.0228 0 0 0 0 0 0.015 0 0 0 0 0.0067 0.0925 -0.0113 0 0 0 0 0.0247 0 0 0 0 0 0.0221 0 0 0 0 0 0.018 0 0 0 0 0.0066 0.0935 -0.0272 0 0 0 0 0.0163 0 0 0 0 0 0.0171 0 0 0 0 0 0.018 0 0 0 0 -2.98023e-06 32.7349 4.76837e-05 -7.78036 10.7427 1.45892 4.47035e-06 23.9624 2.38419e-05 9.41819e-06 -1.15259e-05 0 
-11.8272 4.16122 -300.602 0.0883847 -1.85701 1.9399 8.03987 -7.94362 2.24862 4.48329 1.65452 -4.03728 -2.98023e-06 -50.4312 0 -8.97941 -0.783829 -0.123852 -2.23517e-06 -39.9057 0 31.2672 -4.34806 23.0595 -7.87032 -7.90497 1.16584 -4.77623 -0.483481 -3.94476 2.98023e-06 -49.6556 -7.15256e-05 6.38024 6.47207 -0.722123 1.49012e-05 -39.9794 0 0.560818 -2.63191 0.348224 -1.49012e-06 6.26727 -6.26729 0.766792 -2.74737 -1.25891 -2.98023e-06 32.7349 2.38419e-05 -19.5953 1.10991e-05 -1.68579 19.4062 0 -4.76837e-05 67.4422 -63.8286 56.3517 25.6346 0 8.9407e-06 -1.44698e-05 -8.53773e-07 -36.6522 25.1643 0 1.19209e-05 5.80901 0.148697 1.91416 0.0062 0.0497 0.0339 -13.0767 0 0 0 0.0215 0 0 -13.0767 0 0 0.022 0 0 -13.0767 0 0 0.017 0 0 0 0 -0.0068 0.0873 0.0207 -13.0767 0 0 0 0.0267 0 -23.2475 0 0 0 0.0213 0 -26.1535 0 0 0 0.018 0 0 0 0 -0.0067 0.0922 0.0055 -13.0767 0 0 0 0.0266 0 -23.2475 0 0 0 0.0228 0 -26.1535 0 0 0 0.015 0 0 0 0 -0.0067 0.0925 -0.0113 -13.0767 0 0 0 0.0247 0 -23.2475 0 0 0 0.0221 0 -26.1535 0 0 0 0.018 0 0 0 0 -0.0066 0.0935 -0.0272 -13.0767 0 0 0 0.0163 0 -23.2475 0 0 0 0.0171 0 -26.1535 0 0 0 0.018 0 0 0 0 -2.98023e-06 32.7349 2.38419e-05 16.0932 -8.53773e-07 1.76811 -18.5028 -5.96046e-06 -4.76837e-05 -71.824 -70.8706 -57.4937 -27.291 7.15256e-05 -7.45058e-07 1.09014e-05 3.41509e-06 31.088 -26.1258 -7.15256e-05 -5.96046e-06 -5.13706 1.45965 -10.6685 -0.0062 0.0497 0.0339 0 0 0 0 0.0215 0 0 0 0 0 0.022 0 0 0 0 0 0.017 0 0 0 0 0.0068 0.0873 0.0207 0 0 0 0 0.0267 0 0 0 0 0 0.0213 0 0 0 0 0 0.018 0 0 0 0 0.0067 0.0922 0.0055 0 0 0 0 0.0266 0 0 0 0 0 0.0228 0 0 0 0 0 0.015 0 0 0 0 0.0067 0.0925 -0.0113 0 0 0 0 0.0247 0 0 0 0 0 0.0221 0 0 0 0 0 0.018 0 0 0 0 0.0066 0.0935 -0.0272 0 0 0 0 0.0163 0 0 0 0 0 0.0171 0 0 0 0 0 0.018 0 0 0 0 -2.98023e-06 32.7349 2.38419e-05 -7.47782 10.5199 1.37282 -7.45058e-07 23.7707 -2.38419e-05 1.09256e-05 -8.96462e-06 0 
-11.8272 4.16122 -300.602 0.0883847 -1.85701 1.9399 8.03987 -7.94362 2.24862 4.48329 1.65452 -4.03728 -2.98023e-06 -50.4312 0 -8.97941 -0.783829 -0.123852 -2.23517e-06 -39.9057 0 31.2672 -4.34806 23.0595 -7.87032 -7.90497 1.16584 -4.77623 -0.483481 -3.94476 2.98023e-06 -49.6556 -7.15256e-05 6.38024 6.47207 -0.722123 1.49012e-05 -39.9794 0 0.560818 -2.63191 0.348224 -1.49012e-06 6.26727 -6.26729 0.766792 -2.74737 -1.25891 -2.98023e-06 32.7349 2.38419e-05 -19.5953 1.10991e-05 -1.68579 19.4062 0 -4.76837e-05 67.4422 -63.8286 56.3517 25.6346 0 8.9407e-06 -1.44698e-05 -8.53773e-07 -36.6522 25.1643 0 1.19209e-05 5.80901 0.148697 1.91416 0.0062 0.0497 0.0339 -13.0767 0 0 0 0.0215 0 0 -13.0767 0 0 0.022 0 0 -13.0767 0 0 0.017 0 0 0 0 -0.0068 0.0873 0.0207 -13.0767 0 0 0 0.0267 0 -23.2475 0 0 0 0.0213 0 -26.1535 0 0 0 0.018 0 0 0 0 -0.0067 0.0922 0.0055 -13.0767 0 0 0 0.0266 0 -23.2475 0 0 0 0.0228 0 -26.1535 0 0 0 0.015 0 0 0 0 -0.0067 0.0925 -0.0113 -13.0767 0 0 0 0.0247 0 -23.2475 0 0 0 0.0221 0 -26.1535 0 0 0 0.018 0 0 0 0 -0.0066 0.0935 -0.0272 -13.0767 0 0 0 0.0163 0 -23.2475 0 0 0 0.0171 0 -26.1535 0 0 0 0.018 0 0 0 0 -2.98023e-06 32.7349 2.38419e-05 16.0932 -8.53773e-07 1.76811 -18.5028 -5.96046e-06 -4.76837e-05 -71.824 -70.8706 -57.4937 -27.291 7.15256e-05 -7.45058e-07 1.09014e-05 3.41509e-06 31.088 -26.1258 -7.15256e-05 -5.96046e-06 -5.13706 1.45965 -10.6685 -0.0062 0.0497 0.0339 0 0 0 0 0.0215 0 0 0 0 0 0.022 0 0 0 0 0 0.017 0 0 0 0 0.0068 0.0873 0.0207 0 0 0 0 0.0267 0 0 0 0 0 0.0213 0 0 0 0 0 0.018 0 0 0 0 0.0067 0.0922 0.0055 0 0 0 0 0.0266 0 0 0 0 0 0.0228 0 0 0 0 0 0.015 0 0 0 0 0.0067 0.0925 -0.0113 0 0 0 0 0.0247 0 0 0 0 0 0.0221 0 0 0 0 0 0.018 0 0 0 0 0.0066 0.0935 -0.0272 0 0 0 0 0.0163 0 0 0 0 0 0.0171 0 0 0 0 0 0.018 0 0 0 0 -2.98023e-06 32.7349 2.38419e-05 -7.47782 10.5199 1.37282 -7.45058e-07 23.7707 -2.38419e-05 1.09256e-05 -8.96462e-06 0 
-11.8436 4.31546 -300.632 0.0917374 -2.07472 1.81265 8.03707 -7.95377 2.23677 4.53511 1.85435 -4.05689 -2.98023e-06 -50.4357 7.15256e-05 -9.03416 -0.748318 -0.118975 1.49012e-06 -39.9833 -7.15256e-05 30.7731 -5.04081 22.9764 -7.88176 -7.92634 1.15247 -4.71437 -0.284659 -3.93211 -5.96046e-06 -49.7758 0 6.28541 6.48049 -0.712226 8.9407e-06 -39.9631 -2.38419e-05 0.582334 -1.8816 0.353844 -1.67638e-06 6.2505 -6.2505 0.700693 -2.62419 -1.15262 -1.49012e-06 32.7349 0 -19.1445 1.23797e-05 -1.57112 19.3545 1.19209e-05 0 70.0274 -64.3021 55.0004 25.7851 2.38419e-05 2.98023e-06 1.73332e-06 8.53774e-07 -37.5534 26.0862 0 5.96046e-06 6.00849 0.116186 1.49174 0.0062 0.0497 0.0339 -23.5915 0 0 0 0.0215 0 0 -23.5915 0 0 0.022 0 0 -23.5915 0 0 0.017 0 0 0 0 -0.0068 0.0873 0.0207 -23.5915 0 0 0 0.0267 0 -41.9405 0 0 0 0.0213 0 -47.1831 0 0 0 0.018 0 0 0 0 -0.0067 0.0922 0.0055 -23.5915 0 0 0 0.0266 0 -41.9405 0 0 0 0.0228 0 -47.1831 0 0 0 0.015 0 0 0 0 -0.0067 0.0925 -0.0113 -23.5915 0 0 0 0.0247 0 -41.9405 0 0 0 0.0221 0 -47.1831 0 0 0 0.018 0 0 0 0 -0.0066 0.0935 -0.0272 -23.5915 0 0 0 0.0163 0 -41.9405 0 0 0 0.0171 0 -47.1831 0 0 0 0.018 0 0 0 0 -1.49012e-06 32.7349 0 15.9252 -4.26887e-07 1.63988 -18.543 0 -2.38419e-05 -72.2916 -71.073 -55.364 -27.3276 -2.38419e-05 2.98023e-06 1.96061e-05 2.13443e-06 30.8317 -25.7388 7.15256e-05 0 -8.60622 0.816477 -1.3235 -0.0062 0.0497 0.0339 0 0 0 0 0.0215 0 0 0 0 0 0.022 0 0 0 0 0 0.017 0 0 0 0 0.0068 0.0873 0.0207 0 0 0 0 0.0267 0 0 0 0 0 0.0213 0 0 0 0 0 0.018 0 0 0 0 0.0067 0.0922 0.0055 0 0 0 0 0.0266 0 0 0 0 0 0.0228 0 0 0 0 0 0.015 0 0 0 0 0.0067 0.0925 -0.0113 0 0 0 0 0.0247 0 0 0 0 0 0.0221 0 0 0 0 0 0.018 0 0 0 0 0.0066 0.0935 -0.0272 0 0 0 0 0.0163 0 0 0 0 0 0.0171 0 0 0 0 0 0.018 0 0 0 0 -1.49012e-06 32.7349 0 -7.36038 10.1567 1.3049 -5.21541e-06 23.6541 -4.76837e-05 1.04587e-05 -1.06722e-05 -1.06722e-07 
